<?xml version="1.0" standalone="no"?>
<!DOCTYPE svg PUBLIC "-//W3C//DTD SVG 20010904//EN"
 "http://www.w3.org/TR/2001/REC-SVG-20010904/DTD/svg10.dtd">
<svg version="1.0" xmlns="http://www.w3.org/2000/svg"
 width="195.000000pt" height="158.000000pt" viewBox="0 0 195.000000 158.000000"
 preserveAspectRatio="xMidYMid meet">

<g transform="translate(0.000000,158.000000) scale(0.100000,-0.100000)"
fill="#000000" stroke="none">
<path d="M959 1488 c-6 -13 -23 -42 -36 -65 -15 -25 -20 -44 -14 -48 6 -3 22
17 35 44 14 27 30 52 34 55 5 3 21 -17 36 -44 28 -51 46 -71 46 -48 -1 19 -63
121 -77 125 -6 2 -17 -6 -24 -19z"/>
<path d="M956 1308 c-13 -24 -68 -119 -121 -213 -54 -93 -104 -179 -111 -190
-24 -34 -15 -37 32 -11 26 14 51 26 56 26 6 0 53 -25 106 -57 l96 -56 57 31
56 31 84 -49 c46 -27 90 -50 96 -50 7 0 -9 37 -36 83 -26 45 -101 175 -165
290 -65 114 -119 207 -121 207 -2 0 -15 -19 -29 -42z"/>
<path d="M759 539 l-365 -210 -53 -91 c-29 -49 -50 -92 -47 -95 3 -3 186 100
408 228 221 129 410 235 418 237 9 2 103 -47 209 -109 105 -61 194 -109 198
-106 3 4 -16 45 -43 92 l-49 86 -153 89 c-84 50 -154 90 -156 90 -1 0 -166
-95 -367 -211z"/>
<path d="M970 409 c-74 -44 -206 -120 -292 -170 -87 -50 -158 -95 -158 -100 0
-5 46 -9 102 -9 l101 0 81 47 c342 198 314 184 344 169 15 -8 105 -59 200
-115 l173 -101 79 0 c44 0 80 2 80 5 0 17 -32 63 -46 69 -10 4 -126 70 -259
146 -133 77 -248 140 -256 139 -8 0 -75 -36 -149 -80z"/>
<path d="M173 121 c-18 -33 -33 -64 -33 -70 0 -7 29 -11 77 -11 89 0 90 17 1
22 l-57 3 29 47 c17 27 30 52 30 58 0 24 -17 6 -47 -49z"/>
<path d="M1740 175 c0 -3 14 -30 31 -60 l31 -55 -61 0 c-34 0 -61 -4 -61 -10
0 -6 32 -10 75 -10 41 0 75 2 75 5 0 13 -73 135 -81 135 -5 0 -9 -2 -9 -5z"/>
</g>
</svg>
